<?xml version="1.0" encoding="utf-8"?>
<!-- Generator: Adobe Illustrator 19.1.1, SVG Export Plug-In . SVG Version: 6.00 Build 0)  -->
<svg version="1.1"
	 id="svg2" sodipodi:docname="marker.svg" inkscape:version="0.91 r13725" xmlns:inkscape="http://www.inkscape.org/namespaces/inkscape" xmlns:cc="http://creativecommons.org/ns#" xmlns:sodipodi="http://sodipodi.sourceforge.net/DTD/sodipodi-0.dtd" xmlns:svg="http://www.w3.org/2000/svg" xmlns:dc="http://purl.org/dc/elements/1.1/" xmlns:rdf="http://www.w3.org/1999/02/22-rdf-syntax-ns#"
	 xmlns="http://www.w3.org/2000/svg" xmlns:xlink="http://www.w3.org/1999/xlink" x="0px" y="0px"
	 viewBox="156 -382.4 744.1 1052.4" style="enable-background:new 156 -382.4 744.1 1052.4;" xml:space="preserve">
<style type="text/css">
	.st0{fill:#4B9BC4;stroke:#FFFFFF;stroke-width:1.1;stroke-linecap:round;stroke-opacity:0.122;}
	.st1{fill:#FFFFFF;}
	.st2{fill:url(#path46_1_);stroke:url(#path46_2_);stroke-width:1.1;stroke-linecap:round;}
	.st3{font-family:'MyriadPro-Regular';}
	.st4{font-size:4px;}
	.st5{fill:none;stroke:#FFFFFF;stroke-width:1.1;stroke-linecap:round;stroke-opacity:0.122;}
	.st6{font-family:'FontAwesome';}
	.st7{font-size:13.9657px;}
	.st8{font-size:14.0511px;}
	.st9{font-size:15.2272px;}
	.st10{font-size:14.6546px;}
	.st11{font-size:15.0955px;}
	.st12{font-size:13.8151px;}
	.st13{font-size:17.4103px;}
	.st14{font-size:11.6061px;}
	.st15{font-size:13.5477px;}
	.st16{font-size:15.0989px;}
	.st17{font-size:12.4982px;}
	.st18{font-size:14.6786px;}
</style>
<sodipodi:namedview  id="namedview72" inkscape:window-maximized="1" inkscape:current-layer="layer2" inkscape:window-y="-8" inkscape:window-width="1366" inkscape:window-x="-8" inkscape:pageopacity="0" inkscape:window-height="705" inkscape:pageshadow="2" guidetolerance="10" bordercolor="#666666" borderopacity="1" gridtolerance="10" inkscape:zoom="1.4389508" inkscape:cy="469.81732" pagecolor="#ffffff" inkscape:cx="367.27285" objecttolerance="10" showgrid="false">
	</sodipodi:namedview>
<path id="path70-2" inkscape:connector-curvature="0" class="st0" d="M191.6,229.1c-5.9,0-10.9,5.2-10.9,10.8c0,2.4,1.4,5.8,2.6,8.3
	l0,0l8.3,16l8.3-16l0,0c1.1-2.4,2.6-5.7,2.6-8.3C202.5,234.4,197.6,229.1,191.6,229.1z"/>
<path id="path70-2_1_" inkscape:connector-curvature="0" class="st0" d="M241.6,229.1c-5.9,0-10.9,5.2-10.9,10.8
	c0,2.4,1.4,5.8,2.6,8.3l0,0l8.3,16l8.3-16l0,0c1.1-2.4,2.6-5.7,2.6-8.3C252.5,234.4,247.6,229.1,241.6,229.1z"/>
<path id="path70-2_4_" inkscape:connector-curvature="0" class="st0" d="M285.4,229.1c-5.9,0-10.9,5.2-10.9,10.8
	c0,2.4,1.4,5.8,2.6,8.3l0,0l8.3,16l8.3-16l0,0c1.1-2.4,2.6-5.7,2.6-8.3C296.3,234.4,291.4,229.1,285.4,229.1z"/>
<path id="path70-2_6_" inkscape:connector-curvature="0" class="st0" d="M323.4,229.1c-5.9,0-10.9,5.2-10.9,10.8
	c0,2.4,1.4,5.8,2.6,8.3l0,0l8.3,16l8.3-16l0,0c1.1-2.4,2.6-5.7,2.6-8.3C334.3,234.4,329.4,229.1,323.4,229.1z"/>
<path id="path70-2_8_" inkscape:connector-curvature="0" class="st0" d="M361.3,229.1c-5.9,0-10.9,5.2-10.9,10.8
	c0,2.4,1.4,5.8,2.6,8.3l0,0l8.3,16l8.3-16l0,0c1.1-2.4,2.6-5.7,2.6-8.3C372.2,234.4,367.2,229.1,361.3,229.1z"/>
<path id="path70-2_10_" inkscape:connector-curvature="0" class="st0" d="M402.3,229.1c-5.9,0-10.9,5.2-10.9,10.8
	c0,2.4,1.4,5.8,2.6,8.3l0,0l8.3,16l8.3-16l0,0c1.1-2.4,2.6-5.7,2.6-8.3C413.2,234.4,408.2,229.1,402.3,229.1z"/>
<path id="path70-2_12_" inkscape:connector-curvature="0" class="st0" d="M437.3,229.1c-5.9,0-10.9,5.2-10.9,10.8
	c0,2.4,1.4,5.8,2.6,8.3l0,0l8.3,16l8.3-16l0,0c1.1-2.4,2.6-5.7,2.6-8.3C448.2,234.4,443.2,229.1,437.3,229.1z"/>
<path id="path70-2_14_" inkscape:connector-curvature="0" class="st0" d="M487.7,246.6c-5.9,0-10.9,5.2-10.9,10.8
	c0,2.4,1.4,5.8,2.6,8.3l0,0l8.3,16l8.3-16l0,0c1.1-2.4,2.6-5.7,2.6-8.3C498.5,251.9,493.6,246.6,487.7,246.6z"/>
<path id="path70-2_16_" inkscape:connector-curvature="0" class="st0" d="M519.5,246.6c-5.9,0-10.9,5.2-10.9,10.8
	c0,2.4,1.4,5.8,2.6,8.3l0,0l8.3,16l8.3-16l0,0c1.1-2.4,2.6-5.7,2.6-8.3C530.3,251.9,525.4,246.6,519.5,246.6z"/>
<path id="path70-2_18_" inkscape:connector-curvature="0" class="st0" d="M548.6,246.6c-5.9,0-10.9,5.2-10.9,10.8
	c0,2.4,1.4,5.8,2.6,8.3l0,0l8.3,16l8.3-16l0,0c1.1-2.4,2.6-5.7,2.6-8.3C559.5,251.9,554.5,246.6,548.6,246.6z"/>
<path id="path70-2_20_" inkscape:connector-curvature="0" class="st0" d="M585.3,246.6c-5.9,0-10.9,5.2-10.9,10.8
	c0,2.4,1.4,5.8,2.6,8.3l0,0l8.3,16l8.3-16l0,0c1.1-2.4,2.6-5.7,2.6-8.3C596.2,251.9,591.3,246.6,585.3,246.6z"/>
<path id="path70-2_22_" inkscape:connector-curvature="0" class="st0" d="M648.9,246.6c-5.9,0-10.9,5.2-10.9,10.8
	c0,2.4,1.4,5.8,2.6,8.3l0,0l8.3,16l8.3-16l0,0c1.1-2.4,2.6-5.7,2.6-8.3C659.7,251.9,654.8,246.6,648.9,246.6z"/>
<path id="path70-2_24_" inkscape:connector-curvature="0" class="st0" d="M693.9,246.6c-5.9,0-10.9,5.2-10.9,10.8
	c0,2.4,1.4,5.8,2.6,8.3l0,0l8.3,16l8.3-16l0,0c1.1-2.4,2.6-5.7,2.6-8.3C704.7,251.9,699.8,246.6,693.9,246.6z"/>
<path id="path70-2_26_" inkscape:connector-curvature="0" class="st0" d="M741.9,246.6c-5.9,0-10.9,5.2-10.9,10.8
	c0,2.4,1.4,5.8,2.6,8.3l0,0l8.3,16l8.3-16l0,0c1.1-2.4,2.6-5.7,2.6-8.3C752.7,251.9,747.8,246.6,741.9,246.6z"/>
<path id="path70-2_28_" inkscape:connector-curvature="0" class="st0" d="M778.1,253.8c-5.9,0-10.9,5.2-10.9,10.8
	c0,2.4,1.4,5.8,2.6,8.3l0,0l8.3,16l8.3-16l0,0c1.1-2.4,2.6-5.7,2.6-8.3C789,259,784.1,253.8,778.1,253.8z"/>
<path id="path70-2_30_" inkscape:connector-curvature="0" class="st0" d="M785,143.8c-5.9,0-10.9,5.2-10.9,10.8
	c0,2.4,1.4,5.8,2.6,8.3l0,0l8.3,16l8.3-16l0,0c1.1-2.4,2.6-5.7,2.6-8.3C795.9,149,791,143.8,785,143.8z"/>
<path id="path70-2_32_" inkscape:connector-curvature="0" class="st0" d="M372.2,309.3c-5.9,0-10.9,5.2-10.9,10.8
	c0,2.4,1.4,5.8,2.6,8.3l0,0l8.3,16l8.3-16l0,0c1.1-2.4,2.6-5.7,2.6-8.3C383.1,314.5,378.1,309.3,372.2,309.3z"/>
<image style="overflow:visible;enable-background:new    ;" width="25" height="41" id="image42" xlink:href="375676F4.png"  transform="matrix(1 0 0 1 478.5201 -126.1251)">
</image>
<rect id="rect44" x="519.4" y="-120.8" class="st1" width="12.6" height="14.5"/>
<linearGradient id="path46_1_" gradientUnits="userSpaceOnUse" x1="554.4911" y1="374.3519" x2="554.4911" y2="411.9179" gradientTransform="matrix(1 0 0 -1 -28.846 286.9889)">
	<stop  offset="0" style="stop-color:#126FC6"/>
	<stop  offset="1" style="stop-color:#4C9CD1"/>
</linearGradient>
<linearGradient id="path46_2_" gradientUnits="userSpaceOnUse" x1="462.9111" y1="392.864" x2="462.9111" y2="411.9169" gradientTransform="matrix(1 0 0 -1 62.734 286.9879)">
	<stop  offset="0" style="stop-color:#2E6C97"/>
	<stop  offset="1" style="stop-color:#3883B7"/>
</linearGradient>
<path id="path46" class="st2" d="M525.7-124.8c-6.6,0-12,5.7-12,11.9c0,2.8,1.6,6.3,2.7,8.7l9.3,17.9l9.3-17.9
	c1.1-2.4,2.7-5.8,2.7-8.7C537.6-119.1,532.3-124.8,525.7-124.8L525.7-124.8z M525.7-117.6c2.6,0,4.7,2.1,4.7,4.7s-2.1,4.7-4.7,4.7
	c-2.6,0-4.7-2.1-4.7-4.7C521-115.5,523.1-117.6,525.7-117.6z"/>
<text transform="matrix(1 0 0 1 512.8951 -139.0001)" class="st3 st4">Use this one. </text>
<text transform="matrix(1 0 0 1 512.8951 -134.0001)" class="st3 st4">Select it and the area around with box select. </text>
<text transform="matrix(1 0 0 1 512.8951 -129.0001)" class="st3 st4">should be exactly 25x41 at 90dpi</text>
<text transform="matrix(1 0 0 1 517.8531 -64.6111)" class="st3 st4">How to do the inset border: </text>
<text transform="matrix(1 0 0 1 517.8531 -59.6111)" class="st3 st4">Delete the existing inset border. Select the background, duplicate. </text>
<text transform="matrix(1 0 0 1 517.8531 -54.6111)" class="st3 st4">Path, Dynamic offset. </text>
<text transform="matrix(1 0 0 1 517.8531 -49.6111)" class="st3 st4">Fill: None, Stroke Paint: RGBA #ffffff1f </text>
<text transform="matrix(1 0 0 1 517.8531 -44.6111)" class="st3 st4">Zoom down to the top and grab the diamond, drag it down and fiddle it untill it looks in line </text>
<text transform="matrix(1 0 0 1 517.8531 -39.6111)" class="st3 st4">with the main color layers border.</text>
<path id="path70" class="st5" d="M525.7-123.6c-5.9,0-10.9,5.2-10.9,10.8c0,2.4,1.4,5.8,2.6,8.3l0,0l8.3,16l8.3-16l0,0
	c1.1-2.4,2.6-5.7,2.6-8.3C536.6-118.4,531.6-123.6,525.7-123.6z M525.7-118.7c3.2,0,5.8,2.6,5.8,5.8s-2.6,5.8-5.8,5.8
	c-3.2,0-5.8-2.6-5.8-5.8C519.9-116.1,522.5-118.7,525.7-118.7z"/>
<g id="layer1" inkscape:label="Layer 1" inkscape:groupmode="layer">
</g>
<path id="text4228-0-32-7-2" inkscape:connector-curvature="0" d="M191.1,236.2c0-1.3-0.7-2.8-1.9-3.3c-0.9-0.3-1.8,0.2-2.1,1.1
	c-0.6,1.5,0,3.3,1.2,4.2c0.8,0.6,2,0.4,2.5-0.5C191,237.2,191.1,236.7,191.1,236.2z M187.8,240.9c0-1.4-0.9-2.9-2.2-3.3
	c-0.9-0.3-1.8,0.4-1.9,1.4c-0.2,1.4,0.5,3,1.8,3.7c0.8,0.5,2,0.1,2.2-0.9C187.7,241.5,187.8,241.2,187.8,240.9L187.8,240.9z
	 M191.6,240.6c-1.6,0.1-3,1.2-4.1,2.4c-0.8,1-1.6,2.3-1.5,3.7c0.2,1,1.5,1.1,2.4,1c1.3-0.2,2.6-1.1,3.9-0.7c1.1,0.3,2.2,1,3.4,0.7
	c0.9,0,1.5-0.9,1.3-1.7c-0.3-1.8-1.6-3.3-3-4.4C193.4,241.1,192.5,240.6,191.6,240.6z M193.9,238.6c1.4,0,2.2-1.4,2.4-2.7
	c0.2-1.1-0.1-2.5-1.2-3c-1.2-0.4-2.2,0.6-2.7,1.6c-0.5,1.2-0.6,2.8,0.5,3.7C193.2,238.4,193.5,238.6,193.9,238.6L193.9,238.6z
	 M198,237.6c-1.4,0-2.4,1.5-2.6,2.8c-0.2,1,0.2,2.3,1.3,2.5c1.4,0.1,2.4-1.2,2.7-2.5c0.3-1,0-2.4-1.1-2.7
	C198.3,237.6,198.2,237.6,198,237.6z"/>
<text transform="matrix(1.0228 0 0 1 234.4386 244.8012)" class="st6 st7"></text>
<text transform="matrix(1.0314 0 0 1 640.498 263.7952)" class="st6 st8"></text>
<text transform="matrix(0.6936 0 0 1 581.1193 264.7014)" class="st6 st9"></text>
<text transform="matrix(0.8953 0 0 1 430.2869 245.4495)" class="st6 st10"></text>
<text transform="matrix(0.9432 0 0 1 353.3414 243.9778)" class="st6 st11"></text>
<text transform="matrix(0.9307 0 0 1 687.6848 262.8275)" class="st6 st12"></text>
<text transform="matrix(0.9909 0 0 1 366.0283 326.8351)" class="st6 st13"></text>
<text transform="matrix(1.1755 0 0 1 770.9102 268.8351)" class="st6 st14"></text>
<text transform="matrix(0.9909 0 0 1 396.0016 248.7727)" class="st6 st13"></text>
<text transform="matrix(0.7687 0 0 1 736.1302 263.7952)" class="st6 st15"></text>
<text transform="matrix(0.8907 0 0 1 542.2129 263.1702)" class="st6 st16"></text>
<text transform="matrix(0.9909 0 0 1 511.5176 266.15)" class="st6 st13"></text>
<text transform="matrix(0.9909 0 0 1 481.5195 262.8275)" class="st6 st17"></text>
<text transform="matrix(0.9909 0 0 1 315.3135 246.8264)" class="st6 st13"></text>
<text transform="matrix(0.8829 0 0 1 278.4035 247.7727)" class="st6 st18"></text>
</svg>
